<?xml version="1.0" standalone="no"?><!DOCTYPE svg PUBLIC "-//W3C//DTD SVG 1.1//EN" "http://www.w3.org/Graphics/SVG/1.1/DTD/svg11.dtd"><svg t="1682579416113" class="icon" viewBox="0 0 1079 1024" version="1.1" xmlns="http://www.w3.org/2000/svg" p-id="9087" width="134.875" height="128" xmlns:xlink="http://www.w3.org/1999/xlink"><path d="M309.781125 917.942157a304.339897 106.057843 0 1 0 608.679793 0 304.339897 106.057843 0 1 0-608.679793 0Z" fill="#BC80BF" p-id="9088"></path><path d="M428.934806 379.537213C435.021604 227.459489 470.343477 120.202731 555.83532 63.208169l44.728743 73.779369c93.238677-100.801063 278.517118-13.925856 278.517117-13.925856s0 129.759465-42.884258 175.226001" fill="#FFFFFF" p-id="9089"></path><path d="M468.867889 335.269591c-7.839058-114.634694 14.571425-197.913157 85.584068-249.00537l46.112106 51.553334c74.332714-83.924032 247.068662-35.414097 247.068661-35.414097s11.251354 97.296543-23.056052 135.10847" fill="#A8DB46" p-id="9090"></path><path d="M663.19605 838.460339m-134.691602 36.090506a139.443007 139.443007 0 1 0 269.383203-72.181012 139.443007 139.443007 0 1 0-269.383203 72.181012Z" fill="#FFFFFF" p-id="9091"></path><path d="M726.597091 602.746024m-140.749161 37.713624a145.714254 145.714254 0 1 0 281.498322-75.427248 145.714254 145.714254 0 1 0-281.498322 75.427248Z" fill="#FFFFFF" p-id="9092"></path><path d="M491.47513 666.503341m-140.749161 37.713624a145.714254 145.714254 0 1 0 281.498322-75.427248 145.714254 145.714254 0 1 0-281.498322 75.427248Z" fill="#FFFFFF" p-id="9093"></path><path d="M319.688691 494.749182m-140.749161 37.713624a145.714254 145.714254 0 1 0 281.498321-75.427248 145.714254 145.714254 0 1 0-281.498321 75.427248Z" fill="#FFFFFF" p-id="9094"></path><path d="M554.287861 431.835374m-140.749161 37.713624a145.714254 145.714254 0 1 0 281.498322-75.427248 145.714254 145.714254 0 1 0-281.498322 75.427248Z" fill="#FFFFFF" p-id="9095"></path><path d="M788.823892 369.031816m-140.749161 37.713624a145.714254 145.714254 0 1 0 281.498322-75.427248 145.714254 145.714254 0 1 0-281.498322 75.427248Z" fill="#FFFFFF" p-id="9096"></path><path d="M693.080346 831.217288m-125.605264 33.655829a130.036138 130.036138 0 1 0 251.210528-67.311658 130.036138 130.036138 0 1 0-251.210528 67.311658Z" fill="#7D0780" p-id="9097"></path><path d="M693.080346 831.217288m-125.605264 33.655829a130.036138 130.036138 0 1 0 251.210528-67.311658 130.036138 130.036138 0 1 0-251.210528 67.311658Z" fill="#7D0780" p-id="9098"></path><path d="M817.844304 798.511804a129.851689 129.851689 0 0 0-152.999966-93.238678 129.943913 129.943913 0 0 1 5.717901 252.417666c-2.028933 0.553345-4.150089 0.922242-6.179022 1.291139a129.851689 129.851689 0 0 0 153.461087-160.470127z" fill="#6C0172" p-id="9099"></path><path d="M751.389578 612.383135m-131.217414 35.1596a135.846263 135.846263 0 1 0 262.434827-70.3192 135.846263 135.846263 0 1 0-262.434827 70.3192Z" fill="#7D0780" p-id="9100"></path><path d="M882.032355 578.095939a135.846263 135.846263 0 0 0-127.361636-100.616614A135.846263 135.846263 0 0 1 682.459162 730.634784a135.846263 135.846263 0 0 0 199.573193-152.538845z" fill="#6C0172" p-id="9101"></path><path d="M532.144436 671.84041m-131.217414 35.159601a135.846263 135.846263 0 1 0 262.434828-70.319201 135.846263 135.846263 0 1 0-262.434828 70.319201Z" fill="#7D0780" p-id="9102"></path><path d="M663.36875 636.658313a135.754039 135.754039 0 0 0-163.329077-96.650973 135.846263 135.846263 0 0 1 2.674502 263.115674l-3.135623 0.64557A135.846263 135.846263 0 0 0 663.36875 636.658313z" fill="#6C0172" p-id="9103"></path><path d="M371.916501 511.71706m-131.217414 35.1596a135.846263 135.846263 0 1 0 262.434828-70.319201 135.846263 135.846263 0 1 0-262.434828 70.319201Z" fill="#7D0780" p-id="9104"></path><path d="M503.175296 476.464859a135.754039 135.754039 0 0 0-132.065071-100.52439 135.56959 135.56959 0 0 1-81.249529 243.74859 135.754039 135.754039 0 0 0 213.3146-143.2242z" fill="#6C0172" p-id="9105"></path><path d="M590.722643 453.038839m-131.217414 35.1596a135.846263 135.846263 0 1 0 262.434828-70.3192 135.846263 135.846263 0 1 0-262.434828 70.3192Z" fill="#7D0780" p-id="9106"></path><path d="M721.931125 417.902485a135.846263 135.846263 0 0 0-99.971045-97.112095 135.846263 135.846263 0 0 1-117.862542 236.831774 135.754039 135.754039 0 0 0 217.833587-139.719679z" fill="#6C0172" p-id="9107"></path><path d="M809.373998 394.47565m-131.217413 35.1596a135.846263 135.846263 0 1 0 262.434827-70.319201 135.846263 135.846263 0 1 0-262.434827 70.319201Z" fill="#7D0780" p-id="9108"></path><path d="M940.686953 359.247886a135.754039 135.754039 0 0 0-120.813716-100.155493 135.56959 135.56959 0 0 1-103.936686 233.788375A135.754039 135.754039 0 0 0 940.686953 359.247886z" fill="#6C0172" p-id="9109"></path><path d="M428.012564 332.318417h-0.64557a16.969255 16.969255 0 0 1-16.969255-17.061479C416.668986 157.092416 457.155414 57.582492 537.574927 3.44688A18.444842 18.444842 0 0 1 551.685231 0.311257a17.614824 17.614824 0 0 1 11.62025 8.023506l30.987335 51.276661c98.956579-78.390579 260.072275-4.334538 267.450213-0.922242A16.323685 16.323685 0 0 1 871.242122 74.090626c0 13.188062-1.291139 130.220586-45.005415 176.424915a18.444842 18.444842 0 0 1-24.900537 1.475588 15.678116 15.678116 0 0 1-1.567811-23.148277c26.837245-28.405057 34.768528-105.873394 35.967442-144.238666-36.889684-14.66365-165.358011-58.839047-232.220564 13.37251a18.444842 18.444842 0 0 1-15.12477 5.625677 17.799273 17.799273 0 0 1-13.649183-8.300179l-32.001802-53.674491c-60.683531 50.262195-91.670866 138.336317-97.112094 274.828149A17.153703 17.153703 0 0 1 428.012564 332.318417z" fill="#8BCE09" p-id="9110"></path><path d="M424.231371 338.405215a15.401443 15.401443 0 0 1-14.940322-15.77034c0-1.475587 3.135623-148.757653-49.70885-219.21695a15.401443 15.401443 0 0 1 24.623864-18.444842c58.47015 79.036149 55.518975 231.943891 55.334527 238.122913A15.401443 15.401443 0 0 1 424.231371 338.405215zM227.33268 140.76873c-27.113918 0-55.887872-17.891497-55.887872-50.907764a72.027109 72.027109 0 0 1 37.719703-64.556948c33.569613-18.444842 79.681718-13.372511 123.30377 13.925856A15.401443 15.401443 0 1 1 316.144596 64.868204c-40.025308-25.084985-73.779369-23.240501-92.224211-13.095837a41.500895 41.500895 0 0 0-21.857138 37.90415c0 15.954789 16.41591 20.197102 25.084985 20.197103a26.652797 26.652797 0 0 0 16.231461-4.980108A15.585892 15.585892 0 0 0 249.00537 92.074347a15.401443 15.401443 0 1 1 30.710662 0 46.112106 46.112106 0 0 1-17.430376 36.889684 56.994562 56.994562 0 0 1-34.952976 11.804699z" fill="#8BCE09" p-id="9111"></path><path d="M672.130051 999.007239a160.7468 160.7468 0 0 1-158.902316-181.77392 21.396017 21.396017 0 0 1 23.701622-18.444843 21.119344 21.119344 0 0 1 18.444842 23.701623 118.323663 118.323663 0 1 0 209.533408-58.47015A21.119344 21.119344 0 0 1 797.647202 738.104946a160.7468 160.7468 0 0 1-125.424927 261.178965z" fill="#601343" p-id="9112"></path><path d="M500.685242 833.372556a167.110271 167.110271 0 0 1-161.207921-123.672667 165.265786 165.265786 0 0 1-2.397829-76.453871 21.119344 21.119344 0 1 1 41.40867 8.484627 124.594909 124.594909 0 0 0 154.38333 145.160908 124.779358 124.779358 0 0 0 88.074121-152.538845 123.211546 123.211546 0 0 0-27.021693-50.354419 21.119344 21.119344 0 0 1 31.632904-27.667264 166.925822 166.925822 0 0 1-124.871582 277.041531z" fill="#601343" p-id="9113"></path><path d="M735.488084 770.475644a167.663616 167.663616 0 0 1-105.135601-36.889685 21.119344 21.119344 0 0 1 26.560573-32.924043 124.594909 124.594909 0 0 0 198.743175-129.113896 123.857116 123.857116 0 0 0-21.580466-43.714276 21.119344 21.119344 0 1 1 33.477389-25.822779 166.741374 166.741374 0 0 1-132.06507 268.464679zM328.963761 661.55885a166.925822 166.925822 0 1 1 43.160931-5.717901 167.110271 167.110271 0 0 1-43.160931 5.717901z m0-291.428507a124.594909 124.594909 0 1 0 120.352596 92.224211 124.687133 124.687133 0 0 0-120.44482-92.224211z" fill="#601343" p-id="9114"></path><path d="M563.213257 598.754163a166.833598 166.833598 0 1 1 161.39237-210.086753 167.110271 167.110271 0 0 1-161.39237 210.086753z m0-291.520732a124.594909 124.594909 0 1 0 120.352596 92.224211 124.963806 124.963806 0 0 0-120.075923-92.224211z" fill="#601343" p-id="9115"></path><path d="M798.108323 535.857251a166.925822 166.925822 0 1 1 43.068707-5.717901 167.110271 167.110271 0 0 1-43.068707 5.717901z m0-291.428507a124.594909 124.594909 0 1 0 120.352595 92.224211 124.871582 124.871582 0 0 0-120.444819-92.224211z" fill="#601343" p-id="9116"></path><path d="M143.777545 303.360014a18.444842 18.444842 0 1 0 15.77034-9.222421 18.444842 18.444842 0 0 0-15.77034 9.222421z m0 0M164.159096 182.638522l-12.91139-9.960215 9.960215-13.003613a8.023506 8.023506 0 0 0-12.634717-9.775767L138.336317 162.902541l-13.003614-9.960215a8.023506 8.023506 0 1 0-9.775766 12.634717L129.113896 175.537258l-9.960215 13.003614a8.023506 8.023506 0 0 0 12.634717 9.775766l10.052439-13.095838 13.003613 9.960215A8.023506 8.023506 0 0 0 166.00358 193.9821a7.931282 7.931282 0 0 0-1.567812-11.066905z" fill="#F7E42F" p-id="9117"></path><path d="M234.895066 262.135792a37.535254 37.535254 0 1 1 52.660024-6.824592 37.627478 37.627478 0 0 1-52.660024 6.824592z m34.584079-44.820967a18.998187 18.998187 0 1 0 3.412296 26.745022 18.998187 18.998187 0 0 0-3.412296-26.745022z m0 0" fill="#F8B62D" p-id="9118"></path><path d="M994.822565 267.761469a18.444842 18.444842 0 1 0 4.795659-17.891497 18.444842 18.444842 0 0 0-4.795659 17.891497z m0 0M954.151688 184.759679l-16.323685 1.660036-1.660036-16.323686a8.023506 8.023506 0 0 0-15.862564 1.660036l1.660035 16.323686-16.323685 1.660035a8.023506 8.023506 0 1 0 1.660036 15.862565l16.323685-1.660036 1.660036 16.323685a8.023506 8.023506 0 0 0 15.862564-1.660036l-1.660035-16.415909 16.323685-1.660036a8.023506 8.023506 0 0 0 7.101264-9.222421 7.931282 7.931282 0 0 0-8.7613-7.00904zM1069.800849 345.875376l-16.323686 1.660036-2.121156-16.323686a8.023506 8.023506 0 0 0-15.862565 1.660036l1.660036 16.323685-16.323685 1.660036a8.023506 8.023506 0 1 0 1.660036 15.862564l16.323685-1.660035 1.660036 16.323685a8.023506 8.023506 0 1 0 15.862564-1.660036l-1.660036-16.323685 16.323686-1.660036a8.023506 8.023506 0 1 0-1.660036-15.862564z" fill="#F7E42F" p-id="9119"></path><path d="M1004.78278 627.435892a37.535254 37.535254 0 1 1 33.477389-41.224222 37.627478 37.627478 0 0 1-33.477389 41.224222z m-5.810125-56.256769a18.998187 18.998187 0 1 0 20.934896 16.969255 18.998187 18.998187 0 0 0-20.934896-16.969255z m0 0" fill="#F8B62D" p-id="9120"></path><path d="M20.934896 373.819312a5.072332 5.072332 0 0 0-7.193489 0 5.164556 5.164556 0 0 0 0 7.193488l16.41591 16.41591a5.164556 5.164556 0 0 0 7.193488 0 5.072332 5.072332 0 0 0 0-7.193489zM64.556948 417.256915a5.164556 5.164556 0 0 0-7.193489 0 5.072332 5.072332 0 0 0 0 7.193489L73.779369 440.774089a5.072332 5.072332 0 0 0 6.732367-7.00904z m-3.596744-18.444842a5.164556 5.164556 0 0 0 3.596744-1.291139l15.954788-16.323685a5.164556 5.164556 0 0 0 0-7.193489 5.072332 5.072332 0 0 0-7.193488 0l-16.323686 16.323685a5.072332 5.072332 0 0 0 0 7.193489 5.164556 5.164556 0 0 0 3.596745 1.475587z m-30.526214 18.444842L13.741407 433.765049a5.072332 5.072332 0 0 0 7.193489 7.193488L36.889684 424.542628a5.072332 5.072332 0 1 0-7.193488-7.193489z m3.227847-9.86799a5.072332 5.072332 0 0 0-5.072332-5.072332H5.072332a5.072332 5.072332 0 0 0 0 10.144663H27.667263a5.072332 5.072332 0 0 0 5.164556-5.072331z m56.07232-5.164556H66.124759a5.072332 5.072332 0 0 0 0 10.144663h23.240502a5.072332 5.072332 0 0 0 0-10.144663zM47.126572 359.98568a5.072332 5.072332 0 0 0-5.072332 5.072332v23.148277a5.072332 5.072332 0 0 0 10.144663 0v-23.148277a5.072332 5.072332 0 0 0-5.072331-5.072332z m0 61.236876a5.072332 5.072332 0 0 0-5.072332 5.072332v23.148277a5.072332 5.072332 0 0 0 10.144663 0v-23.148277a4.980107 4.980107 0 0 0-5.072331-5.072332z m0 0" fill="#FAEE00" p-id="9121"></path><path d="M568.285589 169.45046a23.42495 23.42495 0 1 1-17.799273-15.954789 23.517174 23.517174 0 0 1 17.799273 15.954789zM756.238531 159.121348a23.42495 23.42495 0 1 1-17.799273-15.954788A23.517174 23.517174 0 0 1 756.238531 159.121348zM631.182501 251.253335a59.115719 59.115719 0 0 1-48.048814-55.334527l-0.553345-9.222421a11.528026 11.528026 0 0 1 10.882456-12.081371l93.054229-5.072332a11.528026 11.528026 0 0 1 12.081372 10.882457l0.64557 11.066905a58.193477 58.193477 0 0 1-68.061468 59.761289z" fill="#3E3A39" p-id="9122"></path><path d="M642.34163 215.00922a36.889684 36.889684 0 0 0-11.251353 2.39783 11.528026 11.528026 0 0 0 1.75226 22.13381 46.573227 46.573227 0 0 0 21.949362-1.10669 11.528026 11.528026 0 0 0-0.737794-22.226035 36.889684 36.889684 0 0 0-11.712475-1.198915zM270.401387 495.278598l-1.291139-0.553346a13.280286 13.280286 0 0 1-5.441228-17.983721 140.641922 140.641922 0 0 0 6.732367-14.386977A13.280286 13.280286 0 0 1 295.117476 472.038097a163.421302 163.421302 0 0 1-8.023507 17.061479 13.280286 13.280286 0 0 1-16.692582 6.179022zM519.406757 421.499229l-1.291139-0.553345a13.280286 13.280286 0 0 1-5.441228-17.983722 140.641922 140.641922 0 0 0 6.732367-14.386977A13.280286 13.280286 0 0 1 544.122846 398.258728a163.421302 163.421302 0 0 1-8.023507 17.061479 13.280286 13.280286 0 0 1-16.692582 6.179022zM749.967285 366.164702l-1.291139-0.553345a13.280286 13.280286 0 0 1-5.441229-17.983721 140.641922 140.641922 0 0 0 6.732368-14.386977A13.280286 13.280286 0 0 1 774.683373 342.924201a163.421302 163.421302 0 0 1-8.023506 17.061479 13.280286 13.280286 0 0 1-16.692582 6.179022zM464.07223 716.616704l-1.291139-0.553345a13.280286 13.280286 0 0 1-5.441228-17.983721 140.641922 140.641922 0 0 0 6.732367-14.386977A13.280286 13.280286 0 0 1 488.788319 693.376203a163.421302 163.421302 0 0 1-8.023506 17.061479 13.280286 13.280286 0 0 1-16.692583 6.179022zM694.632758 652.059757l-1.291139-0.553346a13.280286 13.280286 0 0 1-5.441228-17.983721 140.641922 140.641922 0 0 0 6.732367-14.386977A13.280286 13.280286 0 0 1 719.348847 628.819255a163.421302 163.421302 0 0 1-8.023507 17.061479 13.280286 13.280286 0 0 1-16.692582 6.179023zM611.630968 882.620284l-1.291139-0.553345a13.280286 13.280286 0 0 1-5.441228-17.983721 140.641922 140.641922 0 0 0 6.732367-14.386977A13.280286 13.280286 0 0 1 636.347057 859.379783a163.421302 163.421302 0 0 1-8.023507 17.061479 13.280286 13.280286 0 0 1-16.692582 6.179022z" fill="#FFFFFF" p-id="9123"></path></svg>