<?xml version="1.0" standalone="no"?><!DOCTYPE svg PUBLIC "-//W3C//DTD SVG 1.1//EN" "http://www.w3.org/Graphics/SVG/1.1/DTD/svg11.dtd"><svg t="1682580893699" class="icon" viewBox="0 0 1024 1024" version="1.1" xmlns="http://www.w3.org/2000/svg" p-id="1943" width="64" height="64" xmlns:xlink="http://www.w3.org/1999/xlink"><path d="M957.06453333 297.40373333c1.60426667 0.3072 3.24266667 0.47786667 4.9152 0.47786667 15.39413333 0 27.88693333-13.27786667 27.88693334-29.66186667s-12.4928-29.66186667-27.88693334-29.66186666c-15.39413333 0-27.88693333 13.27786667-27.88693333 29.66186666 0 9.69386667 4.36906667 18.3296 11.1616 23.7568-3.72053333 5.66613333-6.9632 11.19573333-8.73813333 15.59893334-1.3312 3.2768-4.47146667 10.17173333-8.53333334 18.97813333-6.5536-1.97973333-13.44853333-3.072-20.5824-3.1744-9.728-20.20693333-41.33546667-86.1184-47.13813333-100.0448 6.21226667-5.4272 10.1376-13.68746667 10.1376-22.90346667 0-16.384-12.4928-29.66186667-27.88693333-29.66186666s-27.88693333 13.27786667-27.88693334 29.66186666c0 16.384 12.4928 29.66186667 27.88693334 29.66186667 0.1024 0 0.2048 0 0.3072 0 4.57386667 21.504 18.29546667 76.97066667 24.9856 103.76533333-24.576 14.4384-41.23306667 42.2912-41.23306667 74.27413334 0 24.40533333-2.90133333 48.05973333-8.32853333 70.656-12.56106667-171.52-151.00586667-306.65386667-319.93173334-306.65386667-177.18613333 0-320.85333333 148.6848-320.85333333 332.0832 0 67.92533333 19.69493333 131.10613333 53.52106667 183.7056l-181.31626667 0c-19.42186667 0-20.51413333 6.41706667-3.4816 14.30186667l228.864 106.0864c15.4624 7.168 35.5328 13.68746667 56.35413333 18.67093333 0.6144 0.44373333 1.29706667 0.9216 2.048 1.39946667 185.17333333 33.92853333 278.016 23.48373333 278.016 23.48373333 279.00586667-34.6112 374.44266667-225.0752 374.44266667-443.73333333 0-30.17386667-14.77973333-56.6272-37.0688-71.68 3.31093333-14.0288 5.76853333-25.05386667 6.31466667-28.91093334 0.4096-2.8672 1.09226667-6.38293333 1.9456-10.10346666zM558.21653333 263.4752c0 0-1.19466667 0.03413333-3.4816 0.13653333-1.16053333 0.03413333-2.56 0.1024-4.26666666 0.17066667s-3.65226667 0.06826667-5.87093334 0.27306667c-8.8064 0.54613333-21.74293333 1.91146667-37.6832 5.46133333-1.97973333 0.47786667-4.02773333 0.88746667-6.10986666 1.39946667-2.08213333 0.58026667-4.1984 1.16053333-6.3488 1.77493333-4.36906667 1.09226667-8.77226667 2.73066667-13.4144 4.1984-2.32106667 0.78506667-4.608 1.7408-6.99733334 2.62826667-1.19466667 0.44373333-2.38933333 0.88746667-3.584 1.36533333s-2.38933333 1.024-3.584 1.536-4.84693333 2.08213333-7.33866666 3.20853333c-2.42346667 1.19466667-4.9152 2.42346667-7.40693334 3.6864-19.8656 10.24-40.8576 24.576-59.73333333 44.1344-9.4208 9.728-18.432 20.65066667-26.4192 32.768s-15.18933333 25.2928-20.82133333 39.5264c-5.632 14.2336-10.10346667 29.32053333-12.73173334 45.09013334-0.3072 1.97973333-0.68266667 3.92533333-0.98986666 5.9392-0.23893333 1.97973333-0.47786667 3.9936-0.7168 6.00746666-0.58026667 3.9936-0.78506667 8.05546667-1.09226667 12.11733334l-0.23893333 3.03786666-0.06826667 2.8672c-0.03413333 2.18453333-0.1024 4.36906667-0.13653333 6.5536 0.17066667 3.85706667 0.13653333 7.5776 0.54613333 11.6736l0.23893333 3.03786667c0.06826667 1.024 0.17066667 2.01386667 0.3072 3.03786667 0.27306667 2.01386667 0.512 4.02773333 0.78506667 6.0416s0.7168 4.02773333 1.05813333 6.00746666l0.54613334 3.00373334 0.68266666 3.00373333c1.67253333 8.02133333 4.13013333 15.90613333 7.0656 23.62026667 0.78506667 1.91146667 1.4336 3.8912 2.32106667 5.76853333 0.85333333 1.91146667 1.67253333 3.7888 2.52586667 5.70026667 1.87733333 3.72053333 3.65226667 7.4752 5.76853333 11.09333333 1.97973333 3.6864 4.26666667 7.168 6.51946667 10.71786667l3.584 5.18826666c1.19466667 1.7408 2.52586667 3.34506667 3.7888 5.05173334 5.18826667 6.62186667 10.78613333 12.97066667 16.96426666 18.7392s12.73173333 11.1616 19.62666667 16.0768c13.9264 9.65973333 29.2864 17.33973333 45.53386667 22.3232 2.048 0.58026667 4.02773333 1.3312 6.10986666 1.80906666l6.17813334 1.57013334c2.08213333 0.47786667 4.16426667 0.85333333 6.2464 1.29706666 1.05813333 0.2048 2.08213333 0.44373333 3.14026666 0.6144l3.14026667 0.47786667c4.1984 0.7168 8.43093333 1.05813333 12.66346667 1.50186667-0.06826667 0 0.7168 0.06826667-0.06826667 0l7.50933333 0.34133333 0.7168 0 1.4336 0 2.8672 0c0.9216 0.03413333 1.97973333-0.06826667 3.00373334-0.1024l3.072-0.17066667c1.024-0.03413333 2.048-0.13653333 3.072-0.23893333l3.072-0.3072c4.06186667-0.47786667 8.12373333-1.09226667 12.15146666-1.9456 8.02133333-1.67253333 15.872-4.13013333 23.38133334-7.30453333s14.71146667-7.0656 21.46986666-11.5712c6.79253333-4.47146667 13.1072-9.55733333 18.90986667-15.1552 11.60533333-11.19573333 20.92373333-24.4736 27.71626667-38.7072 3.3792-7.13386667 6.00746667-14.5408 8.02133333-22.05013334 0.58026667-1.87733333 0.95573333-3.75466667 1.36533333-5.66613333l0.64853334-2.83306667 0.47786666-2.8672c0.34133333-1.91146667 0.7168-3.7888 0.9216-5.70026666l0.37546667-2.8672 0.17066667-1.4336 0.03413333-0.37546667c0.03413333-0.2048-0.03413333 0.47786667 0 0l0.06826667-0.78506667 0.34133333-4.8128c0.03413333-0.47786667 0.03413333-0.88746667 0.03413333-1.3312l0.06826667-2.56c0.03413333-0.8192 0.03413333-1.7408 0-2.69653333-0.06826667-1.8432-0.06826667-3.6864-0.23893333-5.5296l-0.2048-2.73066667c-0.06826667-0.9216-0.2048-1.80906667-0.34133334-2.73066666-0.88746667-7.2704-2.59413333-14.336-4.88106666-21.12853334s-5.29066667-13.27786667-8.87466667-19.31946666c-3.54986667-6.0416-7.74826667-11.63946667-12.288-16.7936-9.07946667-10.27413333-19.93386667-18.432-31.4368-24.2688s-23.62026667-9.35253333-35.49866667-10.92266667l-0.8192-0.13653333c0.37546667 0-0.06826667 0-0.06826666 0l-1.19466667-0.1024c-0.78506667-0.06826667-1.60426667-0.13653333-2.38933333-0.23893334-0.85333333-0.1024-1.50186667-0.1024-2.18453334-0.13653333s-1.36533333-0.06826667-2.048-0.1024c-2.7648-0.1024-5.66613333-0.03413333-8.46506666 0.13653333-5.59786667 0.37546667-10.99093333 1.29706667-16.14506667 2.62826667-10.30826667 2.69653333-19.5584 7.13386667-27.3408 12.42453333-3.8912 2.6624-7.4752 5.49546667-10.68373333 8.46506667-3.1744 3.00373333-6.07573333 6.00746667-8.6016 9.1136s-4.77866667 6.144-6.656 9.216c-0.47786667 0.75093333-0.95573333 1.50186667-1.4336 2.2528s-0.85333333 1.50186667-1.26293334 2.21866667c-0.85333333 1.46773333-1.57013333 2.90133333-2.28693333 4.33493333-2.79893333 5.66613333-4.608 10.78613333-5.87093333 14.98453333-0.58026667 2.11626667-1.1264 3.9936-1.46773334 5.66613334s-0.7168 3.03786667-0.88746666 4.16426666c-0.4096 2.2528-0.6144 3.44746667-0.6144 3.44746667s0.03413333-1.19466667 0.03413333-3.4816c0-1.16053333 0.1024-2.59413333 0.2048-4.3008 0.06826667-1.70666667 0.34133333-3.6864 0.6144-5.90506667 0.68266667-4.43733333 1.7408-9.96693333 3.7888-16.24746666s5.12-13.38026667 9.728-20.6848c2.28693333-3.65226667 4.98346667-7.3728 8.0896-11.0592s6.69013333-7.2704 10.68373333-10.752c3.9936-3.4816 8.46506667-6.7584 13.4144-9.728s10.3424-5.632 16.14506667-7.85066667c5.80266667-2.21866667 12.04906667-3.92533333 18.6368-5.05173333 3.31093333-0.54613333 6.62186667-0.95573333 10.1376-1.16053334 0.88746667-0.03413333 1.80906667-0.1024 2.69653333-0.13653333s1.8432-0.1024 2.59413334-0.06826667c0.78506667 0 1.60426667 0 2.38933333 0l1.19466667 0c0.2048 0-0.03413333 0 0.54613333 0l0.34133333 0 0.64853334 0.03413334c13.9264 0.44373333 28.60373333 3.3792 43.04213333 9.18186666s28.33066667 14.81386667 40.51626667 26.58986667c12.1856 11.776 22.4256 26.58986667 29.42293333 43.48586667 3.51573333 8.43093333 6.144 17.408 7.7824 26.69226666 0.2048 1.16053333 0.44373333 2.32106667 0.6144 3.4816l0.47786667 3.51573334c0.34133333 2.3552 0.512 4.74453333 0.68266666 7.09973333 0.23893333 2.32106667 0.23893333 4.98346667 0.3072 7.4752l0.03413334 1.87733333-0.03413334 1.60426667-0.06826666 3.20853333 0 0.8192c0-0.2048-0.03413333 0.75093333-0.03413334 0.8192l-0.03413333 0.44373334-0.13653333 1.77493333-0.23893334 3.54986667c-0.13653333 2.38933333-0.47786667 4.74453333-0.75093333 7.13386666l-0.44373333 3.584-0.64853334 3.54986667c-0.44373333 2.3552-0.8192 4.74453333-1.39946666 7.09973333-2.08213333 9.45493333-5.05173333 18.87573333-8.9088 27.98933334-7.68 18.26133333-19.0464 35.39626667-33.31413334 50.03946666-7.13386667 7.33866667-15.01866667 14.0288-23.48373333 20.00213334-8.4992 5.90506667-17.64693333 11.0592-27.20426667 15.29173333-19.18293333 8.46506667-40.07253333 13.38026667-61.47413333 13.89226667l-4.1984 0.03413333-3.14026667 0-7.50933333-0.3072c-1.09226667-0.06826667-0.58026667-0.03413333-0.95573333-0.06826667-5.15413333-0.47786667-10.3424-0.88746667-15.49653334-1.70666666l-3.85706666-0.54613334c-1.29706667-0.17066667-2.56-0.47786667-3.85706667-0.7168-2.56-0.512-5.12-0.95573333-7.64586667-1.536l-7.5776-1.87733333c-1.26293333-0.3072-2.52586667-0.68266667-3.75466666-1.05813333l-3.75466667-1.16053334c-19.93386667-6.21226667-38.77546667-15.7696-55.73973333-27.71626666-8.46506667-6.0416-16.384-12.73173333-23.79093334-19.93386667s-14.09706667-15.0528-20.2752-23.21066667c-6.17813333-8.15786667-11.63946667-16.82773333-16.384-25.8048-2.4576-4.43733333-4.5056-9.07946667-6.62186666-13.65333333-0.95573333-2.32106667-1.91146667-4.67626667-2.8672-6.99733333s-1.7408-4.7104-2.59413334-7.0656c-3.2768-9.45493333-5.9392-19.08053333-7.71413333-28.80853334-1.8432-9.69386667-2.90133333-19.49013333-3.20853333-29.184-0.27306667-4.74453333-0.06826667-9.9328-0.03413334-14.88213333 0.13653333-2.21866667 0.27306667-4.4032 0.4096-6.62186667l0.23893334-3.6864 0.4096-3.4816c0.54613333-4.64213333 0.95573333-9.25013333 1.8432-13.824 0.37546667-2.28693333 0.78506667-4.53973333 1.16053333-6.82666666 0.44373333-2.2528 0.98986667-4.47146667 1.46773333-6.72426667 4.02773333-17.8176 9.8304-34.816 17.27146667-50.44906667 7.40693333-15.63306667 16.31573333-30.0032 26.2144-42.8032s20.65066667-24.13226667 31.88053333-33.92853333c11.264-9.76213333 22.80106667-18.1248 34.44053334-24.91733333s23.1424-12.32213333 34.23573333-16.62293334c2.79893333-1.024 5.5296-2.048 8.22613333-3.03786666 2.73066667-0.88746667 5.4272-1.70666667 8.0896-2.56 1.3312-0.4096 2.62826667-0.85333333 3.92533334-1.19466667s2.62826667-0.68266667 3.92533333-1.024 5.12-1.36533333 7.61173333-1.87733333c5.0176-0.95573333 9.79626667-2.11626667 14.4384-2.69653334 2.32106667-0.34133333 4.57386667-0.68266667 6.7584-0.98986666 2.21866667-0.27306667 4.36906667-0.44373333 6.48533334-0.64853334s4.13013333-0.4096 6.10986666-0.54613333c1.97973333-0.1024 3.92533333-0.17066667 5.80266667-0.23893333s3.6864-0.13653333 5.4272-0.2048c1.7408 0.03413333 3.44746667 0.03413333 5.08586667 0.06826666 6.48533333-0.03413333 12.04906667 0.47786667 16.4864 0.75093334 2.21866667 0.1024 4.16426667 0.4096 5.87093333 0.6144s3.10613333 0.37546667 4.23253333 0.54613333c2.28693333 0.27306667 3.44746667 0.44373333 3.44746667 0.44373333z" fill="#854ac8" p-id="1944"></path></svg>